PathFileType        4      (X/Y/Z)      C:\Users\pc\Desktop\IMUTRC\Sujet_05\Sujet_05_velo_80.trc         
DataRate	CameraRate	NumFrames	NumMarkers	Units	OrigDataRate	OrigDataStartFrame	OrigNumFrames
60.0	60.0	4	64	mm	60.0	496	990
Frame#	Time	pHipOrigin			pRightASI			pLeftASI			pRightCSI			pLeftCSI			pRightIschialTub			pLeftIschialTub			pSacrum			pL5SpinalProcess			pL3SpinalProcess			pT12SpinalProcess			pIJ			pT4SpinalProcess			pT8SpinalProcess			pPX			pC7SpinalProcess			pTopOfHead			pRightAuricularis			pLeftAuricularis			pBackOfHead			pRightAcromion			pLeftAcromion			pRightArmLatEpicondyle			pRightArmMedEpicondyle			pLeftArmLatEpicondyle			pLeftArmMedEpicondyle			pRightUlnarStyloid			pRightRadialStyloid			pRightOlecranon			pLeftUlnarStyloid			pLeftRadialStyloid			pLeftOlecranon			pRightTopOfHand			pRightPinky			pRightBallHand			pLeftTopOfHand			pLeftPinky			pLeftBallHand			pRightGreaterTrochanter			pRightKneeLatEpicondyle			pRightKneeMedEpicondyle			pRightPatella			pLeftGreaterTrochanter			pLeftKneeLatEpicondyle			pLeftKneeMedEpicondyle			pLeftPatella			pRightTibialTub			pRightLatMalleolus			pRightMedMalleolus			pLeftTibialTub			pLeftLatMalleolus			pLeftMedMalleolus			pRightHeelFoot			pRightFirstMetatarsal			pRightFifthMetatarsal			pRightPivotFoot			pRightHeelCenter			pRightToe			pLeftHeelFoot			pLeftFirstMetatarsal			pLeftFifthMetatarsal			pLeftPivotFoot			pLeftHeelCenter			pLeftToe			
		X1	Y1	Z1	X2	Y2	Z2	X3	Y3	Z3	X4	Y4	Z4	X5	Y5	Z5	X6	Y6	Z6	X7	Y7	Z7	X8	Y8	Z8	X9	Y9	Z9	X10	Y10	Z10	X11	Y11	Z11	X12	Y12	Z12	X13	Y13	Z13	X14	Y14	Z14	X15	Y15	Z15	X16	Y16	Z16	X17	Y17	Z17	X18	Y18	Z18	X19	Y19	Z19	X20	Y20	Z20	X21	Y21	Z21	X22	Y22	Z22	X23	Y23	Z23	X24	Y24	Z24	X25	Y25	Z25	X26	Y26	Z26	X27	Y27	Z27	X28	Y28	Z28	X29	Y29	Z29	X30	Y30	Z30	X31	Y31	Z31	X32	Y32	Z32	X33	Y33	Z33	X34	Y34	Z34	X35	Y35	Z35	X36	Y36	Z36	X37	Y37	Z37	X38	Y38	Z38	X39	Y39	Z39	X40	Y40	Z40	X41	Y41	Z41	X42	Y42	Z42	X43	Y43	Z43	X44	Y44	Z44	X45	Y45	Z45	X46	Y46	Z46	X47	Y47	Z47	X48	Y48	Z48	X49	Y49	Z49	X50	Y50	Z50	X51	Y51	Z51	X52	Y52	Z52	X53	Y53	Z53	X54	Y54	Z54	X55	Y55	Z55	X56	Y56	Z56	X57	Y57	Z57	X58	Y58	Z58	X59	Y59	Z59	X60	Y60	Z60	X61	Y61	Z61	X62	Y62	Z62	X63	Y63	Z63	X64	Y64	Z64	
496	8.25	0.0	1249.99512	7.654012613289058E-14	71.06395000000002	1339.43368	122.53604000000009	47.93627999999999	1349.28757	-126.07184999999991	26.02587000000001	1401.22338	108.10299000000009	6.781799999999993	1409.45428	-98.77076999999991	-45.44383	1193.36423	54.19640000000007	-55.06586	1197.47968	-49.21148999999993	-62.60119	1267.79009	6.549940000000081	-29.79353	1368.82146	5.854370000000086	24.92455	1475.93906	6.376050000000089	82.48287	1569.89882	6.665870000000091	342.68357	1603.28612	11.592810000000076	227.62489	1707.21569	8.23090000000009	153.54682	1652.43965	7.071620000000092	244.66633	1524.33906	10.08575000000008	275.79304	1741.35653	10.14371000000009	549.49936	1811.26119	-5.158799999999923	460.58248	1762.97713	74.59976000000009	446.09147	1771.32395	-70.83208999999991	429.7456	1819.3182	7.245510000000085	278.69124	1674.11821	204.8450200000001	281.87926	1674.98767	-185.36908999999991	350.91447	1414.61308	186.93412000000006	334.51064	1411.01931	132.10011000000006	377.28812	1431.71248	-166.76261999999994	354.04453	1422.26433	-115.17459999999994	447.6565	1196.55225	183.74610000000007	490.43398	1221.53477	189.94825000000006	319.03423	1405.91847	158.24191000000005	478.02967	1214.98483	-169.19710999999995	519.24212	1241.59033	-178.29746999999995	342.74153	1419.30817	-138.01244999999994	497.3317	1137.89262	349.63926	471.47973	1133.66124	267.44621	476.5226	1175.85908	208.67064000000005	594.36355	1165.36759	-312.36836	537.21098	1156.67298	-248.31806999999998	515.82224	1196.3204	-191.45531999999994	27.069220000000012	1214.69501	146.06945000000007	253.01316	936.69934	94.88718000000004	256.20118	944.9882	24.982510000000044	283.73411	967.47826	62.079520000000045	10.665389999999991	1227.96878	-148.85172999999992	336.71327	1071.11801	-141.89603999999997	347.55255	1083.98603	-73.44046999999995	356.76884	1113.66364	-114.36310999999996	285.18321	895.9506	55.529580000000045	64.45604	591.34942	78.71520000000004	62.71712	593.89984	19.12814000000003	384.76548	1045.49789	-114.07328999999996	271.03998	687.10606	-140.09915	279.61866	685.07732	-81.09172999999997	-23.359519999999996	559.70104	54.13844000000004	89.61245	448.41003	3.5937700000000223	95.35089	445.56979	81.72934000000002	108.21891	431.48452	39.87928000000002	6.491980000000003	534.42871	51.06634000000003	165.66131	375.08548	33.677120000000016	220.55328	610.88331	-111.58082999999998	379.49075	579.81457	-73.26658	379.72261	580.68403	-151.69197	401.45913	575.93098	-111.40694	259.3892	606.13026	-111.52286999999997	480.63805	560.33864	-111.34897	
497	8.267	0.0	1249.99512	7.654012613289058E-14	69.49892000000001	1340.70889	122.47808000000009	48.92166999999999	1348.41811	-126.41962999999991	24.402870000000007	1402.20877	107.05963000000008	7.245509999999994	1408.64278	-100.04597999999991	-45.79161	1193.65405	54.19640000000007	-54.3703	1196.84207	-49.327419999999925	-62.77509	1267.6162	5.738440000000081	-30.19928	1368.82146	4.637130000000085	24.40287	1476.05499	5.274730000000089	81.90323	1570.01474	6.028260000000091	342.04596	1603.17019	13.041920000000076	227.16118	1707.21569	9.04239000000009	153.02514	1652.55558	7.129580000000091	243.97076	1524.33906	10.49150000000008	275.32932	1741.29856	11.47689000000009	549.26751	1810.79748	-2.318559999999923	459.94488	1762.51341	77.03425000000009	446.0335	1771.09209	-68.45555999999992	429.45578	1819.02838	9.622040000000085	276.25675	1673.59653	205.77244000000007	281.93723	1675.33545	-184.6155599999999	350.10297	1414.96086	186.87615000000005	333.98896	1411.48302	131.92622000000006	377.28812	1432.06026	-166.70465999999993	354.16045	1422.55415	-115.11663999999995	447.94632	1197.42171	183.28238000000005	490.54991	1222.52016	189.48454000000007	318.33866	1406.20829	158.12598000000006	478.49338	1215.6804	-169.83471999999995	519.64787	1242.34387	-178.93507999999994	342.7995	1419.59799	-137.95447999999993	497.91134	1138.82004	349.11758	471.94344	1134.5307	266.92453	476.87039	1176.78651	208.14897000000005	594.65337	1166.64279	-313.35375	537.61673	1157.71633	-249.24548999999996	516.28595	1197.07393	-192.20884999999996	27.35904000000001	1216.49189	146.3013100000001	267.56214	950.43682	96.74203000000004	270.75016	958.84161	26.895330000000044	296.89196	982.72281	64.10826000000004	9.853889999999991	1225.12854	-148.6198699999999	327.49698	1051.9319	-140.91064999999998	339.37962	1065.37957	-72.74490999999995	349.87111	1093.83993	-114.24717999999996	297.23974	909.05048	57.38443000000004	64.10826	613.60762	78.42538000000005	62.65916	616.56379	18.838320000000035	377.46201	1027.93478	-113.49363999999997	275.32932	666.0651	-139.51951	284.0819	664.26822	-80.51208999999997	-24.982509999999998	586.01673	54.13844000000004	82.65676	469.62488	3.535810000000024	88.51113	466.78464	81.67137000000002	100.56766	451.94584	39.82131000000002	3.6517400000000033	559.46918	51.06634000000003	155.40167	392.99638	33.503230000000016	225.88597	589.14679	-111.58082999999998	384.88141	560.16475	-71.87544	385.80884	561.15014	-150.30083	407.19758	556.57098	-109.78394	264.83783	584.97337	-111.17507999999997	486.66631	541.96403	-109.03041	
498	8.283	0.0	1249.99512	7.654012613289058E-14	67.76000000000002	1341.81021	122.65197000000009	50.02298999999999	1347.66458	-126.53555999999992	22.605990000000006	1403.07823	106.24814000000009	7.883109999999994	1407.94721	-101.08932999999992	-46.25533	1193.88591	54.08048000000007	-53.61676	1196.3204	-49.55927999999993	-62.89101	1267.44231	4.8689800000000805	-30.60503	1368.82146	3.593770000000086	23.8812	1476.11295	4.463230000000089	81.32359	1570.13067	5.680480000000091	341.46632	1602.9963	14.896770000000076	226.69747	1707.15773	10.317600000000091	152.56143	1652.61354	7.593290000000091	243.27519	1524.28109	11.24503000000008	274.92357	1741.18264	13.273770000000091	548.97769	1810.4497	1.0433500000000773	459.24931	1762.16563	79.93245000000009	446.0335	1770.9182	-65.61531999999991	429.10799	1818.73856	12.462270000000085	273.88022	1673.01689	207.16358000000008	281.99519	1675.56731	-183.4562699999999	349.17555	1415.19272	186.93412000000006	333.35135	1412.00469	131.92622000000006	377.23015	1432.35008	-166.35686999999993	354.27638	1422.78601	-114.65292999999994	448.12021	1198.17525	182.93460000000005	490.66583	1223.50555	189.07879000000005	317.58513	1406.44014	158.18394000000006	478.84116	1216.14411	-170.29842999999994	519.93769	1242.98147	-179.34082999999995	342.7995	1419.77188	-137.54872999999995	498.43302	1139.63154	348.65387	472.34919	1135.3422	266.51878	477.04428	1177.598	207.74322000000006	594.7693	1167.68615	-314.16525	537.79062	1158.52783	-249.99901999999997	516.57577	1197.71154	-192.78848999999994	27.243110000000012	1218.05692	146.5331600000001	281.87926	965.33359	99.00263000000004	285.41507	974.20209	29.213890000000042	309.75998	999.30053	66.83257000000005	8.81053999999999	1222.57812	-148.4459799999999	316.07806	1031.52855	-140.15711999999996	329.23591	1045.20807	-72.28118999999994	341.00261	1072.45118	-114.18920999999995	309.70201	923.54149	59.58706000000004	66.137	636.50343	78.01964000000004	65.03568	639.74942	18.490540000000035	368.24572	1008.63275	-113.14585999999997	276.6625	643.98079	-139.0558	285.64693	642.41576	-80.10633999999997	-23.765269999999997	612.91205	54.02251000000003	78.83113	492.05697	3.4198800000000253	84.74347	489.1008	81.61341000000003	96.10442	473.74033	39.763350000000024	3.7097000000000033	585.20523	50.89245000000003	148.44598	412.58824	33.44527000000002	227.62489	567.12044	-111.63878999999999	386.33051	538.60212	-70.42634	388.01147	539.58751	-148.85173	408.99446	535.12427	-108.16095	266.51878	563.00499	-110.88525999999999	488.52116	520.74919	-106.65388	
499	8.3	0.0	1249.99512	7.654012613289058E-14	66.19497000000001	1342.85356	122.70993000000009	51.182269999999995	1346.91105	-126.70944999999992	21.098920000000007	1403.88972	105.37868000000009	8.578679999999993	1407.25164	-102.13268999999991	-46.71904	1194.17573	53.964550000000074	-52.97916	1195.85668	-49.73316999999993	-62.94898	1267.26842	4.057480000000081	-30.95281	1368.82146	2.5504200000000856	23.47545	1476.17092	3.6517400000000895	80.91784	1570.18864	5.39066000000009	340.94465	1602.82241	16.63569000000008	226.40765	1707.09976	11.59281000000009	152.15568	1652.6715	7.999040000000092	242.75352	1524.22313	11.94060000000008	274.57579	1741.06671	15.01269000000009	548.68787	1810.15988	4.231380000000077	458.66967	1761.81784	82.71472000000009	446.0335	1770.80227	-62.83304999999992	428.81817	1818.5067	15.186590000000086	271.73555	1672.32132	208.49675000000008	282.22705	1675.79917	-182.2969899999999	348.30608	1415.25068	186.99208000000004	332.77171	1412.29451	131.92622000000006	377.17219	1432.52397	-166.12501999999995	354.27638	1422.90194	-114.42106999999994	448.00428	1198.63896	182.47089000000005	490.49194	1224.02722	188.61508000000006	316.8316	1406.55607	158.24191000000005	478.89913	1216.49189	-170.82010999999994	519.93769	1243.27129	-179.80453999999995	342.7995	1419.88781	-137.31687999999994	498.66488	1140.09525	348.07423	472.46512	1135.80591	265.99711	477.04428	1178.11968	207.27951000000004	594.53744	1168.38172	-315.03471	537.67469	1159.0495	-250.75255999999996	516.57577	1198.05932	-193.42608999999993	27.18515000000001	1219.67992	146.76502000000008	295.50082	981.09981	101.20526000000004	299.26848	990.3161	31.474490000000042	321.87447	1016.57382	69.38299000000005	7.535329999999991	1220.08567	-148.21411999999992	302.74633	1011.06724	-139.34561999999997	317.23734	1024.86268	-71.81747999999996	330.33722	1050.77262	-114.18920999999995	321.70058	939.07586	61.67377000000003	70.25245	658.76163	77.61389000000004	69.61485	662.29744	18.026830000000036	356.94273	989.21478	-112.74010999999997	274.51783	622.3602	-138.76598	283.67615	620.96906	-79.81651999999997	-20.229459999999996	638.06846	53.84862000000003	78.48335	513.96739	3.3039500000000266	84.45365	511.01122	81.43952000000003	95.29293	495.18703	39.64742000000002	6.376050000000003	609.49217	50.71856000000003	145.6637	432.41195	33.387300000000025	225.3643	545.7317	-111.58082999999999	383.6062	516.86559	-69.0352	385.92476	517.61913	-147.46059	406.61794	513.21386	-106.59592	264.25819	541.50032	-110.47950999999999	486.02871	498.66488	-104.39329	
